<svg width="1200" height="900" viewBox="0 0 1200 900" fill="none" xmlns="http://www.w3.org/2000/svg">
  <rect width="1200" height="900" fill="#07080D"/>
  <defs>
    <radialGradient id="g" cx="0" cy="0" r="1" gradientUnits="userSpaceOnUse" gradientTransform="translate(760 290) rotate(124) scale(720)">
      <stop stop-color="#C6FF4F" stop-opacity="0.38"/>
      <stop offset="0.42" stop-color="#69E7FF" stop-opacity="0.16"/>
      <stop offset="1" stop-color="#07080D" stop-opacity="0"/>
    </radialGradient>
  </defs>
  <rect width="1200" height="900" fill="url(#g)"/>
  <g opacity="0.24">
    <path d="M0 150H1200M0 300H1200M0 450H1200M0 600H1200M0 750H1200" stroke="white"/>
    <path d="M150 0V900M300 0V900M450 0V900M600 0V900M750 0V900M900 0V900M1050 0V900" stroke="white"/>
  </g>
  <rect x="125" y="115" width="950" height="670" rx="42" fill="white" fill-opacity="0.055" stroke="white" stroke-opacity="0.14"/>
  <rect x="180" y="175" width="320" height="115" rx="28" fill="#C6FF4F" fill-opacity="0.92"/>
  <rect x="545" y="175" width="475" height="115" rx="28" fill="white" fill-opacity="0.07" stroke="white" stroke-opacity="0.14"/>
  <rect x="180" y="345" width="840" height="95" rx="24" fill="white" fill-opacity="0.07" stroke="white" stroke-opacity="0.14"/>
  <rect x="180" y="485" width="260" height="190" rx="30" fill="white" fill-opacity="0.07" stroke="white" stroke-opacity="0.14"/>
  <rect x="470" y="485" width="260" height="190" rx="30" fill="white" fill-opacity="0.07" stroke="white" stroke-opacity="0.14"/>
  <rect x="760" y="485" width="260" height="190" rx="30" fill="white" fill-opacity="0.07" stroke="white" stroke-opacity="0.14"/>
  <path d="M290 390H910" stroke="#C6FF4F" stroke-width="8" stroke-linecap="round" stroke-dasharray="24 24"/>
  <circle cx="310" cy="580" r="46" fill="#69E7FF" fill-opacity="0.75"/>
  <circle cx="600" cy="580" r="46" fill="#C6FF4F" fill-opacity="0.85"/>
  <circle cx="890" cy="580" r="46" fill="#8B5CF6" fill-opacity="0.85"/>
</svg>
